<?xml version="1.0" encoding="UTF-8" standalone="no"?>
<!DOCTYPE svg PUBLIC "-//W3C//DTD SVG 1.1//EN"
 "http://www.w3.org/Graphics/SVG/1.1/DTD/svg11.dtd">
<!-- Generated by graphviz version 2.38.0 (20140413.2041)
 -->
<!-- Title: Tree Pages: 1 -->
<svg width="748pt" height="851pt"
 viewBox="0.00 0.00 747.69 851.20" xmlns="http://www.w3.org/2000/svg" xmlns:xlink="http://www.w3.org/1999/xlink">
<g id="graph0" class="graph" transform="scale(1 1) rotate(0) translate(4 847.2)">
<title>Tree</title>
<polygon fill="white" stroke="none" points="-4,4 -4,-847.2 743.689,-847.2 743.689,4 -4,4"/>
<!-- 0 -->
<g id="node1" class="node"><title>0</title>
<polygon fill="none" stroke="black" points="318.131,-843.2 199.058,-843.2 199.058,-751.2 318.131,-751.2 318.131,-843.2"/>
<text text-anchor="middle" x="258.595" y="-826.6" font-family="Times,serif" font-size="14.00">3 &lt;= 0.7087</text>
<text text-anchor="middle" x="258.595" y="-809.8" font-family="Times,serif" font-size="14.00">gini = 0.4741</text>
<text text-anchor="middle" x="258.595" y="-793" font-family="Times,serif" font-size="14.00">samples = 435</text>
<text text-anchor="middle" x="258.595" y="-776.2" font-family="Times,serif" font-size="14.00">value = [267, 168]</text>
<text text-anchor="middle" x="258.595" y="-759.4" font-family="Times,serif" font-size="14.00">class = republican</text>
</g>
<!-- 1 -->
<g id="node2" class="node"><title>1</title>
<polygon fill="none" stroke="black" points="251.284,-715.2 133.905,-715.2 133.905,-623.2 251.284,-623.2 251.284,-715.2"/>
<text text-anchor="middle" x="192.595" y="-698.6" font-family="Times,serif" font-size="14.00">3 &lt;= 0.2087</text>
<text text-anchor="middle" x="192.595" y="-681.8" font-family="Times,serif" font-size="14.00">gini = 0.038</text>
<text text-anchor="middle" x="192.595" y="-665" font-family="Times,serif" font-size="14.00">samples = 258</text>
<text text-anchor="middle" x="192.595" y="-648.2" font-family="Times,serif" font-size="14.00">value = [253, 5]</text>
<text text-anchor="middle" x="192.595" y="-631.4" font-family="Times,serif" font-size="14.00">class = republican</text>
</g>
<!-- 0&#45;&gt;1 -->
<g id="edge1" class="edge"><title>0&#45;&gt;1</title>
<path fill="none" stroke="black" d="M234.954,-751.067C230.451,-742.472 225.696,-733.393 221.062,-724.547"/>
<polygon fill="black" stroke="black" points="224.033,-722.676 216.292,-715.441 217.832,-725.924 224.033,-722.676"/>
<text text-anchor="middle" x="208.836" y="-735.103" font-family="Times,serif" font-size="14.00">True</text>
</g>
<!-- 2 -->
<g id="node7" class="node"><title>2</title>
<polygon fill="none" stroke="black" points="381.631,-715.2 269.558,-715.2 269.558,-623.2 381.631,-623.2 381.631,-715.2"/>
<text text-anchor="middle" x="325.595" y="-698.6" font-family="Times,serif" font-size="14.00">10 &lt;= 0.6812</text>
<text text-anchor="middle" x="325.595" y="-681.8" font-family="Times,serif" font-size="14.00">gini = 0.1457</text>
<text text-anchor="middle" x="325.595" y="-665" font-family="Times,serif" font-size="14.00">samples = 177</text>
<text text-anchor="middle" x="325.595" y="-648.2" font-family="Times,serif" font-size="14.00">value = [14, 163]</text>
<text text-anchor="middle" x="325.595" y="-631.4" font-family="Times,serif" font-size="14.00">class = democrat</text>
</g>
<!-- 0&#45;&gt;2 -->
<g id="edge6" class="edge"><title>0&#45;&gt;2</title>
<path fill="none" stroke="black" d="M282.594,-751.067C287.164,-742.472 291.992,-733.393 296.696,-724.547"/>
<polygon fill="black" stroke="black" points="299.933,-725.914 301.538,-715.441 293.752,-722.627 299.933,-725.914"/>
<text text-anchor="middle" x="308.846" y="-735.149" font-family="Times,serif" font-size="14.00">False</text>
</g>
<!-- 11 -->
<g id="node3" class="node"><title>11</title>
<polygon fill="none" stroke="black" points="117.284,-578.9 -0.094753,-578.9 -0.094753,-503.5 117.284,-503.5 117.284,-578.9"/>
<text text-anchor="middle" x="58.5946" y="-562.2" font-family="Times,serif" font-size="14.00">gini = 0.0161</text>
<text text-anchor="middle" x="58.5946" y="-545.4" font-family="Times,serif" font-size="14.00">samples = 247</text>
<text text-anchor="middle" x="58.5946" y="-528.6" font-family="Times,serif" font-size="14.00">value = [245, 2]</text>
<text text-anchor="middle" x="58.5946" y="-511.8" font-family="Times,serif" font-size="14.00">class = republican</text>
</g>
<!-- 1&#45;&gt;11 -->
<g id="edge2" class="edge"><title>1&#45;&gt;11</title>
<path fill="none" stroke="black" d="M144.596,-623.067C131.79,-611.025 117.973,-598.034 105.241,-586.061"/>
<polygon fill="black" stroke="black" points="107.568,-583.445 97.8851,-579.145 102.773,-588.545 107.568,-583.445"/>
</g>
<!-- 12 -->
<g id="node4" class="node"><title>12</title>
<polygon fill="none" stroke="black" points="252.284,-587.2 134.905,-587.2 134.905,-495.2 252.284,-495.2 252.284,-587.2"/>
<text text-anchor="middle" x="193.595" y="-570.6" font-family="Times,serif" font-size="14.00">11 &lt;= 0.2116</text>
<text text-anchor="middle" x="193.595" y="-553.8" font-family="Times,serif" font-size="14.00">gini = 0.3967</text>
<text text-anchor="middle" x="193.595" y="-537" font-family="Times,serif" font-size="14.00">samples = 11</text>
<text text-anchor="middle" x="193.595" y="-520.2" font-family="Times,serif" font-size="14.00">value = [8, 3]</text>
<text text-anchor="middle" x="193.595" y="-503.4" font-family="Times,serif" font-size="14.00">class = republican</text>
</g>
<!-- 1&#45;&gt;12 -->
<g id="edge3" class="edge"><title>1&#45;&gt;12</title>
<path fill="none" stroke="black" d="M192.953,-623.067C193.018,-614.834 193.087,-606.157 193.154,-597.665"/>
<polygon fill="black" stroke="black" points="196.656,-597.469 193.236,-587.441 189.656,-597.413 196.656,-597.469"/>
</g>
<!-- 13 -->
<g id="node5" class="node"><title>13</title>
<polygon fill="none" stroke="black" points="153.284,-450.9 35.9052,-450.9 35.9052,-375.5 153.284,-375.5 153.284,-450.9"/>
<text text-anchor="middle" x="94.5946" y="-434.2" font-family="Times,serif" font-size="14.00">gini = 0.0</text>
<text text-anchor="middle" x="94.5946" y="-417.4" font-family="Times,serif" font-size="14.00">samples = 6</text>
<text text-anchor="middle" x="94.5946" y="-400.6" font-family="Times,serif" font-size="14.00">value = [6, 0]</text>
<text text-anchor="middle" x="94.5946" y="-383.8" font-family="Times,serif" font-size="14.00">class = republican</text>
</g>
<!-- 12&#45;&gt;13 -->
<g id="edge4" class="edge"><title>12&#45;&gt;13</title>
<path fill="none" stroke="black" d="M158.133,-495.067C148.937,-483.363 139.036,-470.762 129.85,-459.071"/>
<polygon fill="black" stroke="black" points="132.553,-456.846 123.623,-451.145 127.049,-461.17 132.553,-456.846"/>
</g>
<!-- 14 -->
<g id="node6" class="node"><title>14</title>
<polygon fill="none" stroke="black" points="281.784,-450.9 171.405,-450.9 171.405,-375.5 281.784,-375.5 281.784,-450.9"/>
<text text-anchor="middle" x="226.595" y="-434.2" font-family="Times,serif" font-size="14.00">gini = 0.48</text>
<text text-anchor="middle" x="226.595" y="-417.4" font-family="Times,serif" font-size="14.00">samples = 5</text>
<text text-anchor="middle" x="226.595" y="-400.6" font-family="Times,serif" font-size="14.00">value = [2, 3]</text>
<text text-anchor="middle" x="226.595" y="-383.8" font-family="Times,serif" font-size="14.00">class = democrat</text>
</g>
<!-- 12&#45;&gt;14 -->
<g id="edge5" class="edge"><title>12&#45;&gt;14</title>
<path fill="none" stroke="black" d="M205.415,-495.067C208.304,-484.038 211.401,-472.213 214.311,-461.103"/>
<polygon fill="black" stroke="black" points="217.771,-461.705 216.919,-451.145 210.999,-459.932 217.771,-461.705"/>
</g>
<!-- 3 -->
<g id="node8" class="node"><title>3</title>
<polygon fill="none" stroke="black" points="380.784,-578.9 270.405,-578.9 270.405,-503.5 380.784,-503.5 380.784,-578.9"/>
<text text-anchor="middle" x="325.595" y="-562.2" font-family="Times,serif" font-size="14.00">gini = 0.0405</text>
<text text-anchor="middle" x="325.595" y="-545.4" font-family="Times,serif" font-size="14.00">samples = 145</text>
<text text-anchor="middle" x="325.595" y="-528.6" font-family="Times,serif" font-size="14.00">value = [3, 142]</text>
<text text-anchor="middle" x="325.595" y="-511.8" font-family="Times,serif" font-size="14.00">class = democrat</text>
</g>
<!-- 2&#45;&gt;3 -->
<g id="edge7" class="edge"><title>2&#45;&gt;3</title>
<path fill="none" stroke="black" d="M325.595,-623.067C325.595,-612.151 325.595,-600.454 325.595,-589.443"/>
<polygon fill="black" stroke="black" points="329.095,-589.145 325.595,-579.145 322.095,-589.145 329.095,-589.145"/>
</g>
<!-- 4 -->
<g id="node9" class="node"><title>4</title>
<polygon fill="none" stroke="black" points="508.784,-587.2 398.405,-587.2 398.405,-495.2 508.784,-495.2 508.784,-587.2"/>
<text text-anchor="middle" x="453.595" y="-570.6" font-family="Times,serif" font-size="14.00">2 &lt;= 0.2983</text>
<text text-anchor="middle" x="453.595" y="-553.8" font-family="Times,serif" font-size="14.00">gini = 0.4512</text>
<text text-anchor="middle" x="453.595" y="-537" font-family="Times,serif" font-size="14.00">samples = 32</text>
<text text-anchor="middle" x="453.595" y="-520.2" font-family="Times,serif" font-size="14.00">value = [11, 21]</text>
<text text-anchor="middle" x="453.595" y="-503.4" font-family="Times,serif" font-size="14.00">class = democrat</text>
</g>
<!-- 2&#45;&gt;4 -->
<g id="edge8" class="edge"><title>2&#45;&gt;4</title>
<path fill="none" stroke="black" d="M371.444,-623.067C380.819,-613.839 390.76,-604.053 400.368,-594.595"/>
<polygon fill="black" stroke="black" points="402.964,-596.951 407.635,-587.441 398.053,-591.962 402.964,-596.951"/>
</g>
<!-- 5 -->
<g id="node10" class="node"><title>5</title>
<polygon fill="none" stroke="black" points="475.784,-459.2 365.405,-459.2 365.405,-367.2 475.784,-367.2 475.784,-459.2"/>
<text text-anchor="middle" x="420.595" y="-442.6" font-family="Times,serif" font-size="14.00">4 &lt;= 0.5</text>
<text text-anchor="middle" x="420.595" y="-425.8" font-family="Times,serif" font-size="14.00">gini = 0.3403</text>
<text text-anchor="middle" x="420.595" y="-409" font-family="Times,serif" font-size="14.00">samples = 23</text>
<text text-anchor="middle" x="420.595" y="-392.2" font-family="Times,serif" font-size="14.00">value = [5, 18]</text>
<text text-anchor="middle" x="420.595" y="-375.4" font-family="Times,serif" font-size="14.00">class = democrat</text>
</g>
<!-- 4&#45;&gt;5 -->
<g id="edge9" class="edge"><title>4&#45;&gt;5</title>
<path fill="none" stroke="black" d="M441.774,-495.067C439.594,-486.743 437.295,-477.966 435.048,-469.385"/>
<polygon fill="black" stroke="black" points="438.363,-468.228 432.444,-459.441 431.591,-470.002 438.363,-468.228"/>
</g>
<!-- 6 -->
<g id="node17" class="node"><title>6</title>
<polygon fill="none" stroke="black" points="611.284,-459.2 493.905,-459.2 493.905,-367.2 611.284,-367.2 611.284,-459.2"/>
<text text-anchor="middle" x="552.595" y="-442.6" font-family="Times,serif" font-size="14.00">6 &lt;= 0.5</text>
<text text-anchor="middle" x="552.595" y="-425.8" font-family="Times,serif" font-size="14.00">gini = 0.4444</text>
<text text-anchor="middle" x="552.595" y="-409" font-family="Times,serif" font-size="14.00">samples = 9</text>
<text text-anchor="middle" x="552.595" y="-392.2" font-family="Times,serif" font-size="14.00">value = [6, 3]</text>
<text text-anchor="middle" x="552.595" y="-375.4" font-family="Times,serif" font-size="14.00">class = republican</text>
</g>
<!-- 4&#45;&gt;6 -->
<g id="edge16" class="edge"><title>4&#45;&gt;6</title>
<path fill="none" stroke="black" d="M489.056,-495.067C496.094,-486.11 503.544,-476.628 510.771,-467.43"/>
<polygon fill="black" stroke="black" points="513.622,-469.467 517.048,-459.441 508.117,-465.142 513.622,-469.467"/>
</g>
<!-- 9 -->
<g id="node11" class="node"><title>9</title>
<polygon fill="none" stroke="black" points="347.284,-322.9 229.905,-322.9 229.905,-247.5 347.284,-247.5 347.284,-322.9"/>
<text text-anchor="middle" x="288.595" y="-306.2" font-family="Times,serif" font-size="14.00">gini = 0.0</text>
<text text-anchor="middle" x="288.595" y="-289.4" font-family="Times,serif" font-size="14.00">samples = 2</text>
<text text-anchor="middle" x="288.595" y="-272.6" font-family="Times,serif" font-size="14.00">value = [2, 0]</text>
<text text-anchor="middle" x="288.595" y="-255.8" font-family="Times,serif" font-size="14.00">class = republican</text>
</g>
<!-- 5&#45;&gt;9 -->
<g id="edge10" class="edge"><title>5&#45;&gt;9</title>
<path fill="none" stroke="black" d="M373.312,-367.067C360.697,-355.025 347.087,-342.034 334.545,-330.061"/>
<polygon fill="black" stroke="black" points="336.949,-327.518 327.299,-323.145 332.116,-332.581 336.949,-327.518"/>
</g>
<!-- 10 -->
<g id="node12" class="node"><title>10</title>
<polygon fill="none" stroke="black" points="475.784,-331.2 365.405,-331.2 365.405,-239.2 475.784,-239.2 475.784,-331.2"/>
<text text-anchor="middle" x="420.595" y="-314.6" font-family="Times,serif" font-size="14.00">15 &lt;= 0.9063</text>
<text text-anchor="middle" x="420.595" y="-297.8" font-family="Times,serif" font-size="14.00">gini = 0.2449</text>
<text text-anchor="middle" x="420.595" y="-281" font-family="Times,serif" font-size="14.00">samples = 21</text>
<text text-anchor="middle" x="420.595" y="-264.2" font-family="Times,serif" font-size="14.00">value = [3, 18]</text>
<text text-anchor="middle" x="420.595" y="-247.4" font-family="Times,serif" font-size="14.00">class = democrat</text>
</g>
<!-- 5&#45;&gt;10 -->
<g id="edge11" class="edge"><title>5&#45;&gt;10</title>
<path fill="none" stroke="black" d="M420.595,-367.067C420.595,-358.834 420.595,-350.157 420.595,-341.665"/>
<polygon fill="black" stroke="black" points="424.095,-341.441 420.595,-331.441 417.095,-341.441 424.095,-341.441"/>
</g>
<!-- 15 -->
<g id="node13" class="node"><title>15</title>
<polygon fill="none" stroke="black" points="411.784,-203.2 301.405,-203.2 301.405,-111.2 411.784,-111.2 411.784,-203.2"/>
<text text-anchor="middle" x="356.595" y="-186.6" font-family="Times,serif" font-size="14.00">9 &lt;= 0.5</text>
<text text-anchor="middle" x="356.595" y="-169.8" font-family="Times,serif" font-size="14.00">gini = 0.3967</text>
<text text-anchor="middle" x="356.595" y="-153" font-family="Times,serif" font-size="14.00">samples = 11</text>
<text text-anchor="middle" x="356.595" y="-136.2" font-family="Times,serif" font-size="14.00">value = [3, 8]</text>
<text text-anchor="middle" x="356.595" y="-119.4" font-family="Times,serif" font-size="14.00">class = democrat</text>
</g>
<!-- 10&#45;&gt;15 -->
<g id="edge12" class="edge"><title>10&#45;&gt;15</title>
<path fill="none" stroke="black" d="M397.67,-239.067C393.304,-230.472 388.693,-221.393 384.199,-212.547"/>
<polygon fill="black" stroke="black" points="387.224,-210.772 379.574,-203.441 380.983,-213.942 387.224,-210.772"/>
</g>
<!-- 16 -->
<g id="node16" class="node"><title>16</title>
<polygon fill="none" stroke="black" points="539.784,-194.9 429.405,-194.9 429.405,-119.5 539.784,-119.5 539.784,-194.9"/>
<text text-anchor="middle" x="484.595" y="-178.2" font-family="Times,serif" font-size="14.00">gini = 0.0</text>
<text text-anchor="middle" x="484.595" y="-161.4" font-family="Times,serif" font-size="14.00">samples = 10</text>
<text text-anchor="middle" x="484.595" y="-144.6" font-family="Times,serif" font-size="14.00">value = [0, 10]</text>
<text text-anchor="middle" x="484.595" y="-127.8" font-family="Times,serif" font-size="14.00">class = democrat</text>
</g>
<!-- 10&#45;&gt;16 -->
<g id="edge15" class="edge"><title>10&#45;&gt;16</title>
<path fill="none" stroke="black" d="M443.519,-239.067C449.293,-227.7 455.496,-215.488 461.288,-204.085"/>
<polygon fill="black" stroke="black" points="464.421,-205.646 465.829,-195.145 458.18,-202.476 464.421,-205.646"/>
</g>
<!-- 17 -->
<g id="node14" class="node"><title>17</title>
<polygon fill="none" stroke="black" points="347.784,-75.3003 237.405,-75.3003 237.405,0.100267 347.784,0.100267 347.784,-75.3003"/>
<text text-anchor="middle" x="292.595" y="-58.6" font-family="Times,serif" font-size="14.00">gini = 0.4898</text>
<text text-anchor="middle" x="292.595" y="-41.8" font-family="Times,serif" font-size="14.00">samples = 7</text>
<text text-anchor="middle" x="292.595" y="-25" font-family="Times,serif" font-size="14.00">value = [3, 4]</text>
<text text-anchor="middle" x="292.595" y="-8.2" font-family="Times,serif" font-size="14.00">class = democrat</text>
</g>
<!-- 15&#45;&gt;17 -->
<g id="edge13" class="edge"><title>15&#45;&gt;17</title>
<path fill="none" stroke="black" d="M332.034,-111.069C327.272,-102.32 322.278,-93.1428 317.505,-84.373"/>
<polygon fill="black" stroke="black" points="320.485,-82.5267 312.631,-75.4162 314.337,-85.8728 320.485,-82.5267"/>
</g>
<!-- 18 -->
<g id="node15" class="node"><title>18</title>
<polygon fill="none" stroke="black" points="475.784,-75.3003 365.405,-75.3003 365.405,0.100267 475.784,0.100267 475.784,-75.3003"/>
<text text-anchor="middle" x="420.595" y="-58.6" font-family="Times,serif" font-size="14.00">gini = 0.0</text>
<text text-anchor="middle" x="420.595" y="-41.8" font-family="Times,serif" font-size="14.00">samples = 4</text>
<text text-anchor="middle" x="420.595" y="-25" font-family="Times,serif" font-size="14.00">value = [0, 4]</text>
<text text-anchor="middle" x="420.595" y="-8.2" font-family="Times,serif" font-size="14.00">class = democrat</text>
</g>
<!-- 15&#45;&gt;18 -->
<g id="edge14" class="edge"><title>15&#45;&gt;18</title>
<path fill="none" stroke="black" d="M381.156,-111.069C385.917,-102.32 390.911,-93.1428 395.684,-84.373"/>
<polygon fill="black" stroke="black" points="398.853,-85.8728 400.559,-75.4162 392.704,-82.5267 398.853,-85.8728"/>
</g>
<!-- 7 -->
<g id="node18" class="node"><title>7</title>
<polygon fill="none" stroke="black" points="611.284,-322.9 493.905,-322.9 493.905,-247.5 611.284,-247.5 611.284,-322.9"/>
<text text-anchor="middle" x="552.595" y="-306.2" font-family="Times,serif" font-size="14.00">gini = 0.0</text>
<text text-anchor="middle" x="552.595" y="-289.4" font-family="Times,serif" font-size="14.00">samples = 6</text>
<text text-anchor="middle" x="552.595" y="-272.6" font-family="Times,serif" font-size="14.00">value = [6, 0]</text>
<text text-anchor="middle" x="552.595" y="-255.8" font-family="Times,serif" font-size="14.00">class = republican</text>
</g>
<!-- 6&#45;&gt;7 -->
<g id="edge17" class="edge"><title>6&#45;&gt;7</title>
<path fill="none" stroke="black" d="M552.595,-367.067C552.595,-356.151 552.595,-344.454 552.595,-333.443"/>
<polygon fill="black" stroke="black" points="556.095,-333.145 552.595,-323.145 549.095,-333.145 556.095,-333.145"/>
</g>
<!-- 8 -->
<g id="node19" class="node"><title>8</title>
<polygon fill="none" stroke="black" points="739.784,-322.9 629.405,-322.9 629.405,-247.5 739.784,-247.5 739.784,-322.9"/>
<text text-anchor="middle" x="684.595" y="-306.2" font-family="Times,serif" font-size="14.00">gini = 0.0</text>
<text text-anchor="middle" x="684.595" y="-289.4" font-family="Times,serif" font-size="14.00">samples = 3</text>
<text text-anchor="middle" x="684.595" y="-272.6" font-family="Times,serif" font-size="14.00">value = [0, 3]</text>
<text text-anchor="middle" x="684.595" y="-255.8" font-family="Times,serif" font-size="14.00">class = democrat</text>
</g>
<!-- 6&#45;&gt;8 -->
<g id="edge18" class="edge"><title>6&#45;&gt;8</title>
<path fill="none" stroke="black" d="M599.877,-367.067C612.492,-355.025 626.102,-342.034 638.645,-330.061"/>
<polygon fill="black" stroke="black" points="641.074,-332.581 645.89,-323.145 636.24,-327.518 641.074,-332.581"/>
</g>
</g>
</svg>
