<?xml version="1.0" encoding="UTF-8" standalone="no"?>
<!DOCTYPE svg PUBLIC "-//W3C//DTD SVG 1.1//EN"
 "http://www.w3.org/Graphics/SVG/1.1/DTD/svg11.dtd">
<!-- Generated by graphviz version 2.38.0 (20140413.2041)
 -->
<!-- Title: Tree Pages: 1 -->
<svg width="638pt" height="595pt"
 viewBox="0.00 0.00 637.54 595.20" xmlns="http://www.w3.org/2000/svg" xmlns:xlink="http://www.w3.org/1999/xlink">
<g id="graph0" class="graph" transform="scale(1 1) rotate(0) translate(4 591.2)">
<title>Tree</title>
<polygon fill="white" stroke="none" points="-4,4 -4,-591.2 633.536,-591.2 633.536,4 -4,4"/>
<!-- 0 -->
<g id="node1" class="node"><title>0</title>
<polygon fill="none" stroke="black" points="472.499,-587.2 320.037,-587.2 320.037,-495.2 472.499,-495.2 472.499,-587.2"/>
<text text-anchor="middle" x="396.268" y="-570.6" font-family="Times,serif" font-size="14.00">Budget &lt;= 117500000.0</text>
<text text-anchor="middle" x="396.268" y="-553.8" font-family="Times,serif" font-size="14.00">gini = 0.4982</text>
<text text-anchor="middle" x="396.268" y="-537" font-family="Times,serif" font-size="14.00">samples = 100</text>
<text text-anchor="middle" x="396.268" y="-520.2" font-family="Times,serif" font-size="14.00">value = [53, 47]</text>
<text text-anchor="middle" x="396.268" y="-503.4" font-family="Times,serif" font-size="14.00">class = PG&#45;13</text>
</g>
<!-- 1 -->
<g id="node2" class="node"><title>1</title>
<polygon fill="none" stroke="black" points="386.281,-459.2 268.255,-459.2 268.255,-367.2 386.281,-367.2 386.281,-459.2"/>
<text text-anchor="middle" x="327.268" y="-442.6" font-family="Times,serif" font-size="14.00">Runtime &lt;= 110.5</text>
<text text-anchor="middle" x="327.268" y="-425.8" font-family="Times,serif" font-size="14.00">gini = 0.4711</text>
<text text-anchor="middle" x="327.268" y="-409" font-family="Times,serif" font-size="14.00">samples = 79</text>
<text text-anchor="middle" x="327.268" y="-392.2" font-family="Times,serif" font-size="14.00">value = [49, 30]</text>
<text text-anchor="middle" x="327.268" y="-375.4" font-family="Times,serif" font-size="14.00">class = PG&#45;13</text>
</g>
<!-- 0&#45;&gt;1 -->
<g id="edge1" class="edge"><title>0&#45;&gt;1</title>
<path fill="none" stroke="black" d="M371.552,-495.067C366.796,-486.381 361.769,-477.202 356.876,-468.267"/>
<polygon fill="black" stroke="black" points="359.916,-466.531 352.043,-459.441 353.776,-469.893 359.916,-466.531"/>
<text text-anchor="middle" x="345.029" y="-479.237" font-family="Times,serif" font-size="14.00">True</text>
</g>
<!-- 2 -->
<g id="node13" class="node"><title>2</title>
<polygon fill="none" stroke="black" points="524.281,-459.2 406.255,-459.2 406.255,-367.2 524.281,-367.2 524.281,-459.2"/>
<text text-anchor="middle" x="465.268" y="-442.6" font-family="Times,serif" font-size="14.00">Runtime &lt;= 111.0</text>
<text text-anchor="middle" x="465.268" y="-425.8" font-family="Times,serif" font-size="14.00">gini = 0.3084</text>
<text text-anchor="middle" x="465.268" y="-409" font-family="Times,serif" font-size="14.00">samples = 21</text>
<text text-anchor="middle" x="465.268" y="-392.2" font-family="Times,serif" font-size="14.00">value = [4, 17]</text>
<text text-anchor="middle" x="465.268" y="-375.4" font-family="Times,serif" font-size="14.00">class = PG</text>
</g>
<!-- 0&#45;&gt;2 -->
<g id="edge12" class="edge"><title>0&#45;&gt;2</title>
<path fill="none" stroke="black" d="M420.983,-495.067C425.74,-486.381 430.767,-477.202 435.66,-468.267"/>
<polygon fill="black" stroke="black" points="438.759,-469.893 440.493,-459.441 432.62,-466.531 438.759,-469.893"/>
<text text-anchor="middle" x="447.507" y="-479.237" font-family="Times,serif" font-size="14.00">False</text>
</g>
<!-- 3 -->
<g id="node3" class="node"><title>3</title>
<polygon fill="none" stroke="black" points="236.514,-331.2 110.022,-331.2 110.022,-239.2 236.514,-239.2 236.514,-331.2"/>
<text text-anchor="middle" x="173.268" y="-314.6" font-family="Times,serif" font-size="14.00">ReleaseDate &lt;= 8.5</text>
<text text-anchor="middle" x="173.268" y="-297.8" font-family="Times,serif" font-size="14.00">gini = 0.3926</text>
<text text-anchor="middle" x="173.268" y="-281" font-family="Times,serif" font-size="14.00">samples = 41</text>
<text text-anchor="middle" x="173.268" y="-264.2" font-family="Times,serif" font-size="14.00">value = [30, 11]</text>
<text text-anchor="middle" x="173.268" y="-247.4" font-family="Times,serif" font-size="14.00">class = PG&#45;13</text>
</g>
<!-- 1&#45;&gt;3 -->
<g id="edge2" class="edge"><title>1&#45;&gt;3</title>
<path fill="none" stroke="black" d="M272.105,-367.067C260.424,-357.509 248.011,-347.353 236.07,-337.584"/>
<polygon fill="black" stroke="black" points="238.26,-334.853 228.304,-331.23 233.827,-340.271 238.26,-334.853"/>
</g>
<!-- 4 -->
<g id="node8" class="node"><title>4</title>
<polygon fill="none" stroke="black" points="399.999,-331.2 254.537,-331.2 254.537,-239.2 399.999,-239.2 399.999,-331.2"/>
<text text-anchor="middle" x="327.268" y="-314.6" font-family="Times,serif" font-size="14.00">Budget &lt;= 48000000.0</text>
<text text-anchor="middle" x="327.268" y="-297.8" font-family="Times,serif" font-size="14.00">gini = 0.5</text>
<text text-anchor="middle" x="327.268" y="-281" font-family="Times,serif" font-size="14.00">samples = 38</text>
<text text-anchor="middle" x="327.268" y="-264.2" font-family="Times,serif" font-size="14.00">value = [19, 19]</text>
<text text-anchor="middle" x="327.268" y="-247.4" font-family="Times,serif" font-size="14.00">class = PG&#45;13</text>
</g>
<!-- 1&#45;&gt;4 -->
<g id="edge7" class="edge"><title>1&#45;&gt;4</title>
<path fill="none" stroke="black" d="M327.268,-367.067C327.268,-358.834 327.268,-350.157 327.268,-341.665"/>
<polygon fill="black" stroke="black" points="330.768,-341.441 327.268,-331.441 323.768,-341.441 330.768,-341.441"/>
</g>
<!-- 7 -->
<g id="node4" class="node"><title>7</title>
<polygon fill="none" stroke="black" points="98.3045,-194.9 0.231111,-194.9 0.231111,-119.5 98.3045,-119.5 98.3045,-194.9"/>
<text text-anchor="middle" x="49.2678" y="-178.2" font-family="Times,serif" font-size="14.00">gini = 0.2778</text>
<text text-anchor="middle" x="49.2678" y="-161.4" font-family="Times,serif" font-size="14.00">samples = 30</text>
<text text-anchor="middle" x="49.2678" y="-144.6" font-family="Times,serif" font-size="14.00">value = [25, 5]</text>
<text text-anchor="middle" x="49.2678" y="-127.8" font-family="Times,serif" font-size="14.00">class = PG&#45;13</text>
</g>
<!-- 3&#45;&gt;7 -->
<g id="edge3" class="edge"><title>3&#45;&gt;7</title>
<path fill="none" stroke="black" d="M128.851,-239.067C117.111,-227.138 104.454,-214.277 92.7636,-202.397"/>
<polygon fill="black" stroke="black" points="95.1351,-199.817 85.6262,-195.145 90.1459,-204.727 95.1351,-199.817"/>
</g>
<!-- 8 -->
<g id="node5" class="node"><title>8</title>
<polygon fill="none" stroke="black" points="235.281,-203.2 117.255,-203.2 117.255,-111.2 235.281,-111.2 235.281,-203.2"/>
<text text-anchor="middle" x="176.268" y="-186.6" font-family="Times,serif" font-size="14.00">Runtime &lt;= 100.0</text>
<text text-anchor="middle" x="176.268" y="-169.8" font-family="Times,serif" font-size="14.00">gini = 0.4959</text>
<text text-anchor="middle" x="176.268" y="-153" font-family="Times,serif" font-size="14.00">samples = 11</text>
<text text-anchor="middle" x="176.268" y="-136.2" font-family="Times,serif" font-size="14.00">value = [5, 6]</text>
<text text-anchor="middle" x="176.268" y="-119.4" font-family="Times,serif" font-size="14.00">class = PG</text>
</g>
<!-- 3&#45;&gt;8 -->
<g id="edge4" class="edge"><title>3&#45;&gt;8</title>
<path fill="none" stroke="black" d="M174.342,-239.067C174.538,-230.834 174.745,-222.157 174.947,-213.665"/>
<polygon fill="black" stroke="black" points="178.452,-213.522 175.191,-203.441 171.453,-213.355 178.452,-213.522"/>
</g>
<!-- 11 -->
<g id="node6" class="node"><title>11</title>
<polygon fill="none" stroke="black" points="120.422,-75.3003 26.1138,-75.3003 26.1138,0.100267 120.422,0.100267 120.422,-75.3003"/>
<text text-anchor="middle" x="73.2678" y="-58.6" font-family="Times,serif" font-size="14.00">gini = 0.4688</text>
<text text-anchor="middle" x="73.2678" y="-41.8" font-family="Times,serif" font-size="14.00">samples = 8</text>
<text text-anchor="middle" x="73.2678" y="-25" font-family="Times,serif" font-size="14.00">value = [5, 3]</text>
<text text-anchor="middle" x="73.2678" y="-8.2" font-family="Times,serif" font-size="14.00">class = PG&#45;13</text>
</g>
<!-- 8&#45;&gt;11 -->
<g id="edge5" class="edge"><title>8&#45;&gt;11</title>
<path fill="none" stroke="black" d="M136.74,-111.069C128.673,-101.859 120.192,-92.1756 112.148,-82.9918"/>
<polygon fill="black" stroke="black" points="114.735,-80.6328 105.513,-75.4162 109.469,-85.2449 114.735,-80.6328"/>
</g>
<!-- 12 -->
<g id="node7" class="node"><title>12</title>
<polygon fill="none" stroke="black" points="229.805,-75.3003 138.731,-75.3003 138.731,0.100267 229.805,0.100267 229.805,-75.3003"/>
<text text-anchor="middle" x="184.268" y="-58.6" font-family="Times,serif" font-size="14.00">gini = 0.0</text>
<text text-anchor="middle" x="184.268" y="-41.8" font-family="Times,serif" font-size="14.00">samples = 3</text>
<text text-anchor="middle" x="184.268" y="-25" font-family="Times,serif" font-size="14.00">value = [0, 3]</text>
<text text-anchor="middle" x="184.268" y="-8.2" font-family="Times,serif" font-size="14.00">class = PG</text>
</g>
<!-- 8&#45;&gt;12 -->
<g id="edge6" class="edge"><title>8&#45;&gt;12</title>
<path fill="none" stroke="black" d="M179.338,-111.069C179.908,-102.688 180.505,-93.9148 181.078,-85.4828"/>
<polygon fill="black" stroke="black" points="184.576,-85.6307 181.763,-75.4162 177.593,-85.1556 184.576,-85.6307"/>
</g>
<!-- 5 -->
<g id="node9" class="node"><title>5</title>
<polygon fill="none" stroke="black" points="383.514,-203.2 257.022,-203.2 257.022,-111.2 383.514,-111.2 383.514,-203.2"/>
<text text-anchor="middle" x="320.268" y="-186.6" font-family="Times,serif" font-size="14.00">ReleaseDate &lt;= 5.0</text>
<text text-anchor="middle" x="320.268" y="-169.8" font-family="Times,serif" font-size="14.00">gini = 0.4444</text>
<text text-anchor="middle" x="320.268" y="-153" font-family="Times,serif" font-size="14.00">samples = 21</text>
<text text-anchor="middle" x="320.268" y="-136.2" font-family="Times,serif" font-size="14.00">value = [14, 7]</text>
<text text-anchor="middle" x="320.268" y="-119.4" font-family="Times,serif" font-size="14.00">class = PG&#45;13</text>
</g>
<!-- 4&#45;&gt;5 -->
<g id="edge8" class="edge"><title>4&#45;&gt;5</title>
<path fill="none" stroke="black" d="M324.76,-239.067C324.303,-230.834 323.821,-222.157 323.349,-213.665"/>
<polygon fill="black" stroke="black" points="326.831,-213.232 322.781,-203.441 319.841,-213.62 326.831,-213.232"/>
</g>
<!-- 6 -->
<g id="node12" class="node"><title>6</title>
<polygon fill="none" stroke="black" points="499.304,-194.9 401.231,-194.9 401.231,-119.5 499.304,-119.5 499.304,-194.9"/>
<text text-anchor="middle" x="450.268" y="-178.2" font-family="Times,serif" font-size="14.00">gini = 0.4152</text>
<text text-anchor="middle" x="450.268" y="-161.4" font-family="Times,serif" font-size="14.00">samples = 17</text>
<text text-anchor="middle" x="450.268" y="-144.6" font-family="Times,serif" font-size="14.00">value = [5, 12]</text>
<text text-anchor="middle" x="450.268" y="-127.8" font-family="Times,serif" font-size="14.00">class = PG</text>
</g>
<!-- 4&#45;&gt;6 -->
<g id="edge11" class="edge"><title>4&#45;&gt;6</title>
<path fill="none" stroke="black" d="M371.326,-239.067C382.972,-227.138 395.526,-214.277 407.123,-202.397"/>
<polygon fill="black" stroke="black" points="409.722,-204.745 414.203,-195.145 404.713,-199.856 409.722,-204.745"/>
</g>
<!-- 9 -->
<g id="node10" class="node"><title>9</title>
<polygon fill="none" stroke="black" points="356.805,-75.3003 265.731,-75.3003 265.731,0.100267 356.805,0.100267 356.805,-75.3003"/>
<text text-anchor="middle" x="311.268" y="-58.6" font-family="Times,serif" font-size="14.00">gini = 0.4444</text>
<text text-anchor="middle" x="311.268" y="-41.8" font-family="Times,serif" font-size="14.00">samples = 6</text>
<text text-anchor="middle" x="311.268" y="-25" font-family="Times,serif" font-size="14.00">value = [2, 4]</text>
<text text-anchor="middle" x="311.268" y="-8.2" font-family="Times,serif" font-size="14.00">class = PG</text>
</g>
<!-- 5&#45;&gt;9 -->
<g id="edge9" class="edge"><title>5&#45;&gt;9</title>
<path fill="none" stroke="black" d="M316.814,-111.069C316.172,-102.688 315.501,-93.9148 314.856,-85.4828"/>
<polygon fill="black" stroke="black" points="318.338,-85.12 314.085,-75.4162 311.359,-85.6542 318.338,-85.12"/>
</g>
<!-- 10 -->
<g id="node11" class="node"><title>10</title>
<polygon fill="none" stroke="black" points="473.304,-75.3003 375.231,-75.3003 375.231,0.100267 473.304,0.100267 473.304,-75.3003"/>
<text text-anchor="middle" x="424.268" y="-58.6" font-family="Times,serif" font-size="14.00">gini = 0.32</text>
<text text-anchor="middle" x="424.268" y="-41.8" font-family="Times,serif" font-size="14.00">samples = 15</text>
<text text-anchor="middle" x="424.268" y="-25" font-family="Times,serif" font-size="14.00">value = [12, 3]</text>
<text text-anchor="middle" x="424.268" y="-8.2" font-family="Times,serif" font-size="14.00">class = PG&#45;13</text>
</g>
<!-- 5&#45;&gt;10 -->
<g id="edge10" class="edge"><title>5&#45;&gt;10</title>
<path fill="none" stroke="black" d="M360.179,-111.069C368.324,-101.859 376.888,-92.1756 385.01,-82.9918"/>
<polygon fill="black" stroke="black" points="387.706,-85.2258 391.709,-75.4162 382.463,-80.5886 387.706,-85.2258"/>
</g>
<!-- 13 -->
<g id="node14" class="node"><title>13</title>
<polygon fill="none" stroke="black" points="512.422,-322.9 418.114,-322.9 418.114,-247.5 512.422,-247.5 512.422,-322.9"/>
<text text-anchor="middle" x="465.268" y="-306.2" font-family="Times,serif" font-size="14.00">gini = 0.5</text>
<text text-anchor="middle" x="465.268" y="-289.4" font-family="Times,serif" font-size="14.00">samples = 6</text>
<text text-anchor="middle" x="465.268" y="-272.6" font-family="Times,serif" font-size="14.00">value = [3, 3]</text>
<text text-anchor="middle" x="465.268" y="-255.8" font-family="Times,serif" font-size="14.00">class = PG&#45;13</text>
</g>
<!-- 2&#45;&gt;13 -->
<g id="edge13" class="edge"><title>2&#45;&gt;13</title>
<path fill="none" stroke="black" d="M465.268,-367.067C465.268,-356.151 465.268,-344.454 465.268,-333.443"/>
<polygon fill="black" stroke="black" points="468.768,-333.145 465.268,-323.145 461.768,-333.145 468.768,-333.145"/>
</g>
<!-- 14 -->
<g id="node15" class="node"><title>14</title>
<polygon fill="none" stroke="black" points="629.304,-322.9 531.231,-322.9 531.231,-247.5 629.304,-247.5 629.304,-322.9"/>
<text text-anchor="middle" x="580.268" y="-306.2" font-family="Times,serif" font-size="14.00">gini = 0.1244</text>
<text text-anchor="middle" x="580.268" y="-289.4" font-family="Times,serif" font-size="14.00">samples = 15</text>
<text text-anchor="middle" x="580.268" y="-272.6" font-family="Times,serif" font-size="14.00">value = [1, 14]</text>
<text text-anchor="middle" x="580.268" y="-255.8" font-family="Times,serif" font-size="14.00">class = PG</text>
</g>
<!-- 2&#45;&gt;14 -->
<g id="edge14" class="edge"><title>2&#45;&gt;14</title>
<path fill="none" stroke="black" d="M506.461,-367.067C517.246,-355.25 528.865,-342.519 539.622,-330.734"/>
<polygon fill="black" stroke="black" points="542.392,-332.89 546.548,-323.145 537.222,-328.172 542.392,-332.89"/>
</g>
</g>
</svg>
