<?xml version="1.0" encoding="UTF-8" standalone="no"?>
<!DOCTYPE svg PUBLIC "-//W3C//DTD SVG 1.1//EN"
 "http://www.w3.org/Graphics/SVG/1.1/DTD/svg11.dtd">
<!-- Generated by graphviz version 2.38.0 (20140413.2041)
 -->
<!-- Title: Tree Pages: 1 -->
<svg width="1445pt" height="956pt"
 viewBox="0.00 0.00 1445.39 956.00" xmlns="http://www.w3.org/2000/svg" xmlns:xlink="http://www.w3.org/1999/xlink">
<g id="graph0" class="graph" transform="scale(1 1) rotate(0) translate(4 952)">
<title>Tree</title>
<polygon fill="white" stroke="none" points="-4,4 -4,-952 1441.39,-952 1441.39,4 -4,4"/>
<!-- 0 -->
<g id="node1" class="node"><title>0</title>
<polygon fill="none" stroke="black" points="691.658,-948.1 507.588,-948.1 507.588,-872.7 691.658,-872.7 691.658,-948.1"/>
<text text-anchor="middle" x="599.623" y="-931.4" font-family="Times,serif" font-size="14.00">physician&#45;fee&#45;freeze &lt;= 0.708</text>
<text text-anchor="middle" x="599.623" y="-914.6" font-family="Times,serif" font-size="14.00">gini = 0.471</text>
<text text-anchor="middle" x="599.623" y="-897.8" font-family="Times,serif" font-size="14.00">samples = 303</text>
<text text-anchor="middle" x="599.623" y="-881" font-family="Times,serif" font-size="14.00">value = [115, 188]</text>
</g>
<!-- 1 -->
<g id="node2" class="node"><title>1</title>
<polygon fill="none" stroke="black" points="566.658,-836.9 382.588,-836.9 382.588,-761.5 566.658,-761.5 566.658,-836.9"/>
<text text-anchor="middle" x="474.623" y="-820.2" font-family="Times,serif" font-size="14.00">physician&#45;fee&#45;freeze &lt;= 0.208</text>
<text text-anchor="middle" x="474.623" y="-803.4" font-family="Times,serif" font-size="14.00">gini = 0.0326</text>
<text text-anchor="middle" x="474.623" y="-786.6" font-family="Times,serif" font-size="14.00">samples = 181</text>
<text text-anchor="middle" x="474.623" y="-769.8" font-family="Times,serif" font-size="14.00">value = [3, 178]</text>
</g>
<!-- 0&#45;&gt;1 -->
<g id="edge1" class="edge"><title>0&#45;&gt;1</title>
<path fill="none" stroke="black" d="M557.652,-872.734C546.933,-863.37 535.309,-853.215 524.246,-843.551"/>
<polygon fill="black" stroke="black" points="526.53,-840.898 516.696,-836.955 521.924,-846.17 526.53,-840.898"/>
<text text-anchor="middle" x="518.379" y="-857.698" font-family="Times,serif" font-size="14.00">True</text>
</g>
<!-- 14 -->
<g id="node15" class="node"><title>14</title>
<polygon fill="none" stroke="black" points="846.455,-836.9 604.791,-836.9 604.791,-761.5 846.455,-761.5 846.455,-836.9"/>
<text text-anchor="middle" x="725.623" y="-820.2" font-family="Times,serif" font-size="14.00">synfuels&#45;corporation&#45;cutback &lt;= 0.6812</text>
<text text-anchor="middle" x="725.623" y="-803.4" font-family="Times,serif" font-size="14.00">gini = 0.1505</text>
<text text-anchor="middle" x="725.623" y="-786.6" font-family="Times,serif" font-size="14.00">samples = 122</text>
<text text-anchor="middle" x="725.623" y="-769.8" font-family="Times,serif" font-size="14.00">value = [112, 10]</text>
</g>
<!-- 0&#45;&gt;14 -->
<g id="edge14" class="edge"><title>0&#45;&gt;14</title>
<path fill="none" stroke="black" d="M641.93,-872.734C652.734,-863.37 664.452,-853.215 675.602,-843.551"/>
<polygon fill="black" stroke="black" points="677.949,-846.149 683.213,-836.955 673.364,-840.859 677.949,-846.149"/>
<text text-anchor="middle" x="681.432" y="-857.691" font-family="Times,serif" font-size="14.00">False</text>
</g>
<!-- 2 -->
<g id="node3" class="node"><title>2</title>
<polygon fill="none" stroke="black" points="311.413,-725.7 43.8328,-725.7 43.8328,-650.3 311.413,-650.3 311.413,-725.7"/>
<text text-anchor="middle" x="177.623" y="-709" font-family="Times,serif" font-size="14.00">adoption&#45;of&#45;the&#45;budget&#45;resolution &lt;= 0.2991</text>
<text text-anchor="middle" x="177.623" y="-692.2" font-family="Times,serif" font-size="14.00">gini = 0.0114</text>
<text text-anchor="middle" x="177.623" y="-675.4" font-family="Times,serif" font-size="14.00">samples = 174</text>
<text text-anchor="middle" x="177.623" y="-658.6" font-family="Times,serif" font-size="14.00">value = [1, 173]</text>
</g>
<!-- 1&#45;&gt;2 -->
<g id="edge2" class="edge"><title>1&#45;&gt;2</title>
<path fill="none" stroke="black" d="M382.278,-764.247C352.109,-753.154 318.313,-740.728 287.013,-729.22"/>
<polygon fill="black" stroke="black" points="287.98,-725.847 277.386,-725.681 285.564,-732.417 287.98,-725.847"/>
</g>
<!-- 11 -->
<g id="node12" class="node"><title>11</title>
<polygon fill="none" stroke="black" points="620.209,-725.7 329.037,-725.7 329.037,-650.3 620.209,-650.3 620.209,-725.7"/>
<text text-anchor="middle" x="474.623" y="-709" font-family="Times,serif" font-size="14.00">export&#45;administration&#45;act&#45;south&#45;africa &lt;= 0.9061</text>
<text text-anchor="middle" x="474.623" y="-692.2" font-family="Times,serif" font-size="14.00">gini = 0.4082</text>
<text text-anchor="middle" x="474.623" y="-675.4" font-family="Times,serif" font-size="14.00">samples = 7</text>
<text text-anchor="middle" x="474.623" y="-658.6" font-family="Times,serif" font-size="14.00">value = [2, 5]</text>
</g>
<!-- 1&#45;&gt;11 -->
<g id="edge11" class="edge"><title>1&#45;&gt;11</title>
<path fill="none" stroke="black" d="M474.623,-761.534C474.623,-753.341 474.623,-744.541 474.623,-735.996"/>
<polygon fill="black" stroke="black" points="478.123,-735.755 474.623,-725.755 471.123,-735.755 478.123,-735.755"/>
</g>
<!-- 3 -->
<g id="node4" class="node"><title>3</title>
<polygon fill="none" stroke="black" points="161.369,-614.5 -0.123088,-614.5 -0.123088,-539.1 161.369,-539.1 161.369,-614.5"/>
<text text-anchor="middle" x="80.6229" y="-597.8" font-family="Times,serif" font-size="14.00">el&#45;salvador&#45;aid &lt;= 0.7518</text>
<text text-anchor="middle" x="80.6229" y="-581" font-family="Times,serif" font-size="14.00">gini = 0.1049</text>
<text text-anchor="middle" x="80.6229" y="-564.2" font-family="Times,serif" font-size="14.00">samples = 18</text>
<text text-anchor="middle" x="80.6229" y="-547.4" font-family="Times,serif" font-size="14.00">value = [1, 17]</text>
</g>
<!-- 2&#45;&gt;3 -->
<g id="edge3" class="edge"><title>2&#45;&gt;3</title>
<path fill="none" stroke="black" d="M145.053,-650.334C137.056,-641.331 128.408,-631.595 120.123,-622.268"/>
<polygon fill="black" stroke="black" points="122.529,-619.707 113.271,-614.555 117.296,-624.356 122.529,-619.707"/>
</g>
<!-- 10 -->
<g id="node11" class="node"><title>10</title>
<polygon fill="none" stroke="black" points="284.16,-606.201 179.086,-606.201 179.086,-547.399 284.16,-547.399 284.16,-606.201"/>
<text text-anchor="middle" x="231.623" y="-589.4" font-family="Times,serif" font-size="14.00">gini = 0.0</text>
<text text-anchor="middle" x="231.623" y="-572.6" font-family="Times,serif" font-size="14.00">samples = 156</text>
<text text-anchor="middle" x="231.623" y="-555.8" font-family="Times,serif" font-size="14.00">value = [0, 156]</text>
</g>
<!-- 2&#45;&gt;10 -->
<g id="edge10" class="edge"><title>2&#45;&gt;10</title>
<path fill="none" stroke="black" d="M195.754,-650.334C201.308,-639.104 207.424,-626.735 213.009,-615.441"/>
<polygon fill="black" stroke="black" points="216.256,-616.77 217.552,-606.255 209.982,-613.667 216.256,-616.77"/>
</g>
<!-- 4 -->
<g id="node5" class="node"><title>4</title>
<polygon fill="none" stroke="black" points="112.66,-495.001 14.5862,-495.001 14.5862,-436.199 112.66,-436.199 112.66,-495.001"/>
<text text-anchor="middle" x="63.6229" y="-478.2" font-family="Times,serif" font-size="14.00">gini = 0.0</text>
<text text-anchor="middle" x="63.6229" y="-461.4" font-family="Times,serif" font-size="14.00">samples = 10</text>
<text text-anchor="middle" x="63.6229" y="-444.6" font-family="Times,serif" font-size="14.00">value = [0, 10]</text>
</g>
<!-- 3&#45;&gt;4 -->
<g id="edge4" class="edge"><title>3&#45;&gt;4</title>
<path fill="none" stroke="black" d="M74.9149,-539.134C73.219,-528.241 71.3563,-516.276 69.6414,-505.26"/>
<polygon fill="black" stroke="black" points="73.0494,-504.397 68.0527,-495.055 66.1327,-505.474 73.0494,-504.397"/>
</g>
<!-- 5 -->
<g id="node6" class="node"><title>5</title>
<polygon fill="none" stroke="black" points="326.587,-503.3 130.659,-503.3 130.659,-427.9 326.587,-427.9 326.587,-503.3"/>
<text text-anchor="middle" x="228.623" y="-486.6" font-family="Times,serif" font-size="14.00">anti&#45;satellite&#45;test&#45;ban &lt;= 0.7845</text>
<text text-anchor="middle" x="228.623" y="-469.8" font-family="Times,serif" font-size="14.00">gini = 0.2188</text>
<text text-anchor="middle" x="228.623" y="-453" font-family="Times,serif" font-size="14.00">samples = 8</text>
<text text-anchor="middle" x="228.623" y="-436.2" font-family="Times,serif" font-size="14.00">value = [1, 7]</text>
</g>
<!-- 3&#45;&gt;5 -->
<g id="edge5" class="edge"><title>3&#45;&gt;5</title>
<path fill="none" stroke="black" d="M130.316,-539.134C143.251,-529.59 157.301,-519.224 170.624,-509.394"/>
<polygon fill="black" stroke="black" points="172.84,-512.108 178.809,-503.355 168.684,-506.476 172.84,-512.108"/>
</g>
<!-- 6 -->
<g id="node7" class="node"><title>6</title>
<polygon fill="none" stroke="black" points="163.16,-383.801 72.0861,-383.801 72.0861,-324.999 163.16,-324.999 163.16,-383.801"/>
<text text-anchor="middle" x="117.623" y="-367" font-family="Times,serif" font-size="14.00">gini = 0.0</text>
<text text-anchor="middle" x="117.623" y="-350.2" font-family="Times,serif" font-size="14.00">samples = 6</text>
<text text-anchor="middle" x="117.623" y="-333.4" font-family="Times,serif" font-size="14.00">value = [0, 6]</text>
</g>
<!-- 5&#45;&gt;6 -->
<g id="edge6" class="edge"><title>5&#45;&gt;6</title>
<path fill="none" stroke="black" d="M191.353,-427.934C179.252,-416.03 165.851,-402.846 153.83,-391.02"/>
<polygon fill="black" stroke="black" points="156.13,-388.373 146.547,-383.855 151.221,-393.363 156.13,-388.373"/>
</g>
<!-- 7 -->
<g id="node8" class="node"><title>7</title>
<polygon fill="none" stroke="black" points="334.585,-392.1 180.66,-392.1 180.66,-316.7 334.585,-316.7 334.585,-392.1"/>
<text text-anchor="middle" x="257.623" y="-375.4" font-family="Times,serif" font-size="14.00">duty&#45;free&#45;exports &lt;= 0.5</text>
<text text-anchor="middle" x="257.623" y="-358.6" font-family="Times,serif" font-size="14.00">gini = 0.5</text>
<text text-anchor="middle" x="257.623" y="-341.8" font-family="Times,serif" font-size="14.00">samples = 2</text>
<text text-anchor="middle" x="257.623" y="-325" font-family="Times,serif" font-size="14.00">value = [1, 1]</text>
</g>
<!-- 5&#45;&gt;7 -->
<g id="edge7" class="edge"><title>5&#45;&gt;7</title>
<path fill="none" stroke="black" d="M238.36,-427.934C240.584,-419.561 242.976,-410.554 245.292,-401.832"/>
<polygon fill="black" stroke="black" points="248.678,-402.718 247.862,-392.155 241.912,-400.922 248.678,-402.718"/>
</g>
<!-- 8 -->
<g id="node9" class="node"><title>8</title>
<polygon fill="none" stroke="black" points="275.16,-272.601 184.086,-272.601 184.086,-213.799 275.16,-213.799 275.16,-272.601"/>
<text text-anchor="middle" x="229.623" y="-255.8" font-family="Times,serif" font-size="14.00">gini = 0.0</text>
<text text-anchor="middle" x="229.623" y="-239" font-family="Times,serif" font-size="14.00">samples = 1</text>
<text text-anchor="middle" x="229.623" y="-222.2" font-family="Times,serif" font-size="14.00">value = [0, 1]</text>
</g>
<!-- 7&#45;&gt;8 -->
<g id="edge8" class="edge"><title>7&#45;&gt;8</title>
<path fill="none" stroke="black" d="M248.221,-316.734C245.399,-305.728 242.297,-293.629 239.448,-282.52"/>
<polygon fill="black" stroke="black" points="242.793,-281.472 236.919,-272.655 236.013,-283.211 242.793,-281.472"/>
</g>
<!-- 9 -->
<g id="node10" class="node"><title>9</title>
<polygon fill="none" stroke="black" points="385.16,-272.601 294.086,-272.601 294.086,-213.799 385.16,-213.799 385.16,-272.601"/>
<text text-anchor="middle" x="339.623" y="-255.8" font-family="Times,serif" font-size="14.00">gini = 0.0</text>
<text text-anchor="middle" x="339.623" y="-239" font-family="Times,serif" font-size="14.00">samples = 1</text>
<text text-anchor="middle" x="339.623" y="-222.2" font-family="Times,serif" font-size="14.00">value = [1, 0]</text>
</g>
<!-- 7&#45;&gt;9 -->
<g id="edge9" class="edge"><title>7&#45;&gt;9</title>
<path fill="none" stroke="black" d="M285.156,-316.734C293.842,-305.167 303.435,-292.392 312.119,-280.827"/>
<polygon fill="black" stroke="black" points="315.05,-282.753 318.256,-272.655 309.452,-278.55 315.05,-282.753"/>
</g>
<!-- 12 -->
<g id="node13" class="node"><title>12</title>
<polygon fill="none" stroke="black" points="419.16,-606.201 328.086,-606.201 328.086,-547.399 419.16,-547.399 419.16,-606.201"/>
<text text-anchor="middle" x="373.623" y="-589.4" font-family="Times,serif" font-size="14.00">gini = 0.0</text>
<text text-anchor="middle" x="373.623" y="-572.6" font-family="Times,serif" font-size="14.00">samples = 2</text>
<text text-anchor="middle" x="373.623" y="-555.8" font-family="Times,serif" font-size="14.00">value = [2, 0]</text>
</g>
<!-- 11&#45;&gt;12 -->
<g id="edge12" class="edge"><title>11&#45;&gt;12</title>
<path fill="none" stroke="black" d="M440.71,-650.334C429.804,-638.542 417.736,-625.495 406.878,-613.755"/>
<polygon fill="black" stroke="black" points="409.301,-611.22 399.941,-606.255 404.162,-615.973 409.301,-611.22"/>
</g>
<!-- 13 -->
<g id="node14" class="node"><title>13</title>
<polygon fill="none" stroke="black" points="529.16,-606.201 438.086,-606.201 438.086,-547.399 529.16,-547.399 529.16,-606.201"/>
<text text-anchor="middle" x="483.623" y="-589.4" font-family="Times,serif" font-size="14.00">gini = 0.0</text>
<text text-anchor="middle" x="483.623" y="-572.6" font-family="Times,serif" font-size="14.00">samples = 5</text>
<text text-anchor="middle" x="483.623" y="-555.8" font-family="Times,serif" font-size="14.00">value = [0, 5]</text>
</g>
<!-- 11&#45;&gt;13 -->
<g id="edge13" class="edge"><title>11&#45;&gt;13</title>
<path fill="none" stroke="black" d="M477.645,-650.334C478.543,-639.441 479.529,-627.476 480.437,-616.46"/>
<polygon fill="black" stroke="black" points="483.944,-616.509 481.278,-606.255 476.968,-615.934 483.944,-616.509"/>
</g>
<!-- 15 -->
<g id="node16" class="node"><title>15</title>
<polygon fill="none" stroke="black" points="813.085,-725.7 638.16,-725.7 638.16,-650.3 813.085,-650.3 813.085,-725.7"/>
<text text-anchor="middle" x="725.623" y="-709" font-family="Times,serif" font-size="14.00">duty&#45;free&#45;exports &lt;= 0.7143</text>
<text text-anchor="middle" x="725.623" y="-692.2" font-family="Times,serif" font-size="14.00">gini = 0.0396</text>
<text text-anchor="middle" x="725.623" y="-675.4" font-family="Times,serif" font-size="14.00">samples = 99</text>
<text text-anchor="middle" x="725.623" y="-658.6" font-family="Times,serif" font-size="14.00">value = [97, 2]</text>
</g>
<!-- 14&#45;&gt;15 -->
<g id="edge15" class="edge"><title>14&#45;&gt;15</title>
<path fill="none" stroke="black" d="M725.623,-761.534C725.623,-753.341 725.623,-744.541 725.623,-735.996"/>
<polygon fill="black" stroke="black" points="729.123,-735.755 725.623,-725.755 722.123,-735.755 729.123,-735.755"/>
</g>
<!-- 24 -->
<g id="node25" class="node"><title>24</title>
<polygon fill="none" stroke="black" points="1077.91,-725.7 831.333,-725.7 831.333,-650.3 1077.91,-650.3 1077.91,-725.7"/>
<text text-anchor="middle" x="954.623" y="-709" font-family="Times,serif" font-size="14.00">adoption&#45;of&#45;the&#45;budget&#45;resolution &lt;= 0.5</text>
<text text-anchor="middle" x="954.623" y="-692.2" font-family="Times,serif" font-size="14.00">gini = 0.4537</text>
<text text-anchor="middle" x="954.623" y="-675.4" font-family="Times,serif" font-size="14.00">samples = 23</text>
<text text-anchor="middle" x="954.623" y="-658.6" font-family="Times,serif" font-size="14.00">value = [15, 8]</text>
</g>
<!-- 14&#45;&gt;24 -->
<g id="edge24" class="edge"><title>14&#45;&gt;24</title>
<path fill="none" stroke="black" d="M802.514,-761.534C823.661,-751.45 846.733,-740.448 868.37,-730.13"/>
<polygon fill="black" stroke="black" points="870.026,-733.218 877.545,-725.755 867.013,-726.9 870.026,-733.218"/>
</g>
<!-- 16 -->
<g id="node17" class="node"><title>16</title>
<polygon fill="none" stroke="black" points="648.66,-606.201 550.586,-606.201 550.586,-547.399 648.66,-547.399 648.66,-606.201"/>
<text text-anchor="middle" x="599.623" y="-589.4" font-family="Times,serif" font-size="14.00">gini = 0.0</text>
<text text-anchor="middle" x="599.623" y="-572.6" font-family="Times,serif" font-size="14.00">samples = 89</text>
<text text-anchor="middle" x="599.623" y="-555.8" font-family="Times,serif" font-size="14.00">value = [89, 0]</text>
</g>
<!-- 15&#45;&gt;16 -->
<g id="edge16" class="edge"><title>15&#45;&gt;16</title>
<path fill="none" stroke="black" d="M683.316,-650.334C669.451,-638.318 654.082,-624.998 640.337,-613.085"/>
<polygon fill="black" stroke="black" points="642.305,-610.159 632.455,-606.255 637.72,-615.449 642.305,-610.159"/>
</g>
<!-- 17 -->
<g id="node18" class="node"><title>17</title>
<polygon fill="none" stroke="black" points="785.631,-614.5 667.615,-614.5 667.615,-539.1 785.631,-539.1 785.631,-614.5"/>
<text text-anchor="middle" x="726.623" y="-597.8" font-family="Times,serif" font-size="14.00">mx&#45;missile &lt;= 0.5</text>
<text text-anchor="middle" x="726.623" y="-581" font-family="Times,serif" font-size="14.00">gini = 0.32</text>
<text text-anchor="middle" x="726.623" y="-564.2" font-family="Times,serif" font-size="14.00">samples = 10</text>
<text text-anchor="middle" x="726.623" y="-547.4" font-family="Times,serif" font-size="14.00">value = [8, 2]</text>
</g>
<!-- 15&#45;&gt;17 -->
<g id="edge17" class="edge"><title>15&#45;&gt;17</title>
<path fill="none" stroke="black" d="M725.959,-650.334C726.034,-642.141 726.114,-633.341 726.193,-624.796"/>
<polygon fill="black" stroke="black" points="729.695,-624.587 726.286,-614.555 722.695,-624.522 729.695,-624.587"/>
</g>
<!-- 18 -->
<g id="node19" class="node"><title>18</title>
<polygon fill="none" stroke="black" points="662.612,-503.3 458.634,-503.3 458.634,-427.9 662.612,-427.9 662.612,-503.3"/>
<text text-anchor="middle" x="560.623" y="-486.6" font-family="Times,serif" font-size="14.00">water&#45;project&#45;cost&#45;sharing &lt;= 0.5</text>
<text text-anchor="middle" x="560.623" y="-469.8" font-family="Times,serif" font-size="14.00">gini = 0.1975</text>
<text text-anchor="middle" x="560.623" y="-453" font-family="Times,serif" font-size="14.00">samples = 9</text>
<text text-anchor="middle" x="560.623" y="-436.2" font-family="Times,serif" font-size="14.00">value = [8, 1]</text>
</g>
<!-- 17&#45;&gt;18 -->
<g id="edge18" class="edge"><title>17&#45;&gt;18</title>
<path fill="none" stroke="black" d="M670.886,-539.134C656.241,-529.5 640.322,-519.028 625.253,-509.116"/>
<polygon fill="black" stroke="black" points="626.774,-505.927 616.496,-503.355 622.927,-511.775 626.774,-505.927"/>
</g>
<!-- 23 -->
<g id="node24" class="node"><title>23</title>
<polygon fill="none" stroke="black" points="772.16,-495.001 681.086,-495.001 681.086,-436.199 772.16,-436.199 772.16,-495.001"/>
<text text-anchor="middle" x="726.623" y="-478.2" font-family="Times,serif" font-size="14.00">gini = 0.0</text>
<text text-anchor="middle" x="726.623" y="-461.4" font-family="Times,serif" font-size="14.00">samples = 1</text>
<text text-anchor="middle" x="726.623" y="-444.6" font-family="Times,serif" font-size="14.00">value = [0, 1]</text>
</g>
<!-- 17&#45;&gt;23 -->
<g id="edge23" class="edge"><title>17&#45;&gt;23</title>
<path fill="none" stroke="black" d="M726.623,-539.134C726.623,-528.241 726.623,-516.276 726.623,-505.26"/>
<polygon fill="black" stroke="black" points="730.123,-505.055 726.623,-495.055 723.123,-505.055 730.123,-505.055"/>
</g>
<!-- 19 -->
<g id="node20" class="node"><title>19</title>
<polygon fill="none" stroke="black" points="444.16,-383.801 353.086,-383.801 353.086,-324.999 444.16,-324.999 444.16,-383.801"/>
<text text-anchor="middle" x="398.623" y="-367" font-family="Times,serif" font-size="14.00">gini = 0.0</text>
<text text-anchor="middle" x="398.623" y="-350.2" font-family="Times,serif" font-size="14.00">samples = 7</text>
<text text-anchor="middle" x="398.623" y="-333.4" font-family="Times,serif" font-size="14.00">value = [7, 0]</text>
</g>
<!-- 18&#45;&gt;19 -->
<g id="edge19" class="edge"><title>18&#45;&gt;19</title>
<path fill="none" stroke="black" d="M506.229,-427.934C487.823,-415.528 467.356,-401.731 449.255,-389.53"/>
<polygon fill="black" stroke="black" points="450.827,-386.368 440.578,-383.681 446.914,-392.173 450.827,-386.368"/>
</g>
<!-- 20 -->
<g id="node21" class="node"><title>20</title>
<polygon fill="none" stroke="black" points="708.913,-392.1 462.333,-392.1 462.333,-316.7 708.913,-316.7 708.913,-392.1"/>
<text text-anchor="middle" x="585.623" y="-375.4" font-family="Times,serif" font-size="14.00">adoption&#45;of&#45;the&#45;budget&#45;resolution &lt;= 0.5</text>
<text text-anchor="middle" x="585.623" y="-358.6" font-family="Times,serif" font-size="14.00">gini = 0.5</text>
<text text-anchor="middle" x="585.623" y="-341.8" font-family="Times,serif" font-size="14.00">samples = 2</text>
<text text-anchor="middle" x="585.623" y="-325" font-family="Times,serif" font-size="14.00">value = [1, 1]</text>
</g>
<!-- 18&#45;&gt;20 -->
<g id="edge20" class="edge"><title>18&#45;&gt;20</title>
<path fill="none" stroke="black" d="M569.017,-427.934C570.913,-419.651 572.952,-410.748 574.928,-402.114"/>
<polygon fill="black" stroke="black" points="578.388,-402.684 577.208,-392.155 571.565,-401.122 578.388,-402.684"/>
</g>
<!-- 21 -->
<g id="node22" class="node"><title>21</title>
<polygon fill="none" stroke="black" points="549.16,-272.601 458.086,-272.601 458.086,-213.799 549.16,-213.799 549.16,-272.601"/>
<text text-anchor="middle" x="503.623" y="-255.8" font-family="Times,serif" font-size="14.00">gini = 0.0</text>
<text text-anchor="middle" x="503.623" y="-239" font-family="Times,serif" font-size="14.00">samples = 1</text>
<text text-anchor="middle" x="503.623" y="-222.2" font-family="Times,serif" font-size="14.00">value = [0, 1]</text>
</g>
<!-- 20&#45;&gt;21 -->
<g id="edge21" class="edge"><title>20&#45;&gt;21</title>
<path fill="none" stroke="black" d="M558.09,-316.734C549.404,-305.167 539.811,-292.392 531.127,-280.827"/>
<polygon fill="black" stroke="black" points="533.794,-278.55 524.99,-272.655 528.196,-282.753 533.794,-278.55"/>
</g>
<!-- 22 -->
<g id="node23" class="node"><title>22</title>
<polygon fill="none" stroke="black" points="659.16,-272.601 568.086,-272.601 568.086,-213.799 659.16,-213.799 659.16,-272.601"/>
<text text-anchor="middle" x="613.623" y="-255.8" font-family="Times,serif" font-size="14.00">gini = 0.0</text>
<text text-anchor="middle" x="613.623" y="-239" font-family="Times,serif" font-size="14.00">samples = 1</text>
<text text-anchor="middle" x="613.623" y="-222.2" font-family="Times,serif" font-size="14.00">value = [1, 0]</text>
</g>
<!-- 20&#45;&gt;22 -->
<g id="edge22" class="edge"><title>20&#45;&gt;22</title>
<path fill="none" stroke="black" d="M595.024,-316.734C597.846,-305.728 600.949,-293.629 603.797,-282.52"/>
<polygon fill="black" stroke="black" points="607.233,-283.211 606.327,-272.655 600.453,-281.472 607.233,-283.211"/>
</g>
<!-- 25 -->
<g id="node26" class="node"><title>25</title>
<polygon fill="none" stroke="black" points="1044.05,-614.5 857.198,-614.5 857.198,-539.1 1044.05,-539.1 1044.05,-614.5"/>
<text text-anchor="middle" x="950.623" y="-597.8" font-family="Times,serif" font-size="14.00">education&#45;spending &lt;= 0.2109</text>
<text text-anchor="middle" x="950.623" y="-581" font-family="Times,serif" font-size="14.00">gini = 0.3599</text>
<text text-anchor="middle" x="950.623" y="-564.2" font-family="Times,serif" font-size="14.00">samples = 17</text>
<text text-anchor="middle" x="950.623" y="-547.4" font-family="Times,serif" font-size="14.00">value = [13, 4]</text>
</g>
<!-- 24&#45;&gt;25 -->
<g id="edge25" class="edge"><title>24&#45;&gt;25</title>
<path fill="none" stroke="black" d="M953.28,-650.334C952.98,-642.141 952.657,-633.341 952.344,-624.796"/>
<polygon fill="black" stroke="black" points="955.833,-624.42 951.969,-614.555 948.838,-624.676 955.833,-624.42"/>
</g>
<!-- 38 -->
<g id="node39" class="node"><title>38</title>
<polygon fill="none" stroke="black" points="1237.09,-614.5 1062.16,-614.5 1062.16,-539.1 1237.09,-539.1 1237.09,-614.5"/>
<text text-anchor="middle" x="1149.62" y="-597.8" font-family="Times,serif" font-size="14.00">anti&#45;satellite&#45;test&#45;ban &lt;= 0.5</text>
<text text-anchor="middle" x="1149.62" y="-581" font-family="Times,serif" font-size="14.00">gini = 0.4444</text>
<text text-anchor="middle" x="1149.62" y="-564.2" font-family="Times,serif" font-size="14.00">samples = 6</text>
<text text-anchor="middle" x="1149.62" y="-547.4" font-family="Times,serif" font-size="14.00">value = [2, 4]</text>
</g>
<!-- 24&#45;&gt;38 -->
<g id="edge38" class="edge"><title>24&#45;&gt;38</title>
<path fill="none" stroke="black" d="M1020.1,-650.334C1037.78,-640.43 1057.05,-629.641 1075.19,-619.484"/>
<polygon fill="black" stroke="black" points="1076.97,-622.495 1083.99,-614.555 1073.55,-616.387 1076.97,-622.495"/>
</g>
<!-- 26 -->
<g id="node27" class="node"><title>26</title>
<polygon fill="none" stroke="black" points="883.16,-495.001 792.086,-495.001 792.086,-436.199 883.16,-436.199 883.16,-495.001"/>
<text text-anchor="middle" x="837.623" y="-478.2" font-family="Times,serif" font-size="14.00">gini = 0.0</text>
<text text-anchor="middle" x="837.623" y="-461.4" font-family="Times,serif" font-size="14.00">samples = 2</text>
<text text-anchor="middle" x="837.623" y="-444.6" font-family="Times,serif" font-size="14.00">value = [0, 2]</text>
</g>
<!-- 25&#45;&gt;26 -->
<g id="edge26" class="edge"><title>25&#45;&gt;26</title>
<path fill="none" stroke="black" d="M912.681,-539.134C900.363,-527.23 886.72,-514.046 874.482,-502.22"/>
<polygon fill="black" stroke="black" points="876.691,-499.487 867.068,-495.055 871.827,-504.521 876.691,-499.487"/>
</g>
<!-- 27 -->
<g id="node28" class="node"><title>27</title>
<polygon fill="none" stroke="black" points="1083.87,-503.3 901.38,-503.3 901.38,-427.9 1083.87,-427.9 1083.87,-503.3"/>
<text text-anchor="middle" x="992.623" y="-486.6" font-family="Times,serif" font-size="14.00">superfund&#45;right&#45;to&#45;sue &lt;= 0.5</text>
<text text-anchor="middle" x="992.623" y="-469.8" font-family="Times,serif" font-size="14.00">gini = 0.2311</text>
<text text-anchor="middle" x="992.623" y="-453" font-family="Times,serif" font-size="14.00">samples = 15</text>
<text text-anchor="middle" x="992.623" y="-436.2" font-family="Times,serif" font-size="14.00">value = [13, 2]</text>
</g>
<!-- 25&#45;&gt;27 -->
<g id="edge27" class="edge"><title>25&#45;&gt;27</title>
<path fill="none" stroke="black" d="M964.725,-539.134C967.98,-530.671 971.484,-521.561 974.872,-512.751"/>
<polygon fill="black" stroke="black" points="978.163,-513.945 978.486,-503.355 971.63,-511.432 978.163,-513.945"/>
</g>
<!-- 28 -->
<g id="node29" class="node"><title>28</title>
<polygon fill="none" stroke="black" points="1074.71,-392.1 804.537,-392.1 804.537,-316.7 1074.71,-316.7 1074.71,-392.1"/>
<text text-anchor="middle" x="939.623" y="-375.4" font-family="Times,serif" font-size="14.00">export&#45;administration&#45;act&#45;south&#45;africa &lt;= 0.5</text>
<text text-anchor="middle" x="939.623" y="-358.6" font-family="Times,serif" font-size="14.00">gini = 0.5</text>
<text text-anchor="middle" x="939.623" y="-341.8" font-family="Times,serif" font-size="14.00">samples = 2</text>
<text text-anchor="middle" x="939.623" y="-325" font-family="Times,serif" font-size="14.00">value = [1, 1]</text>
</g>
<!-- 27&#45;&gt;28 -->
<g id="edge28" class="edge"><title>27&#45;&gt;28</title>
<path fill="none" stroke="black" d="M974.827,-427.934C970.676,-419.381 966.204,-410.167 961.886,-401.27"/>
<polygon fill="black" stroke="black" points="964.977,-399.623 957.462,-392.155 958.68,-402.68 964.977,-399.623"/>
</g>
<!-- 31 -->
<g id="node32" class="node"><title>31</title>
<polygon fill="none" stroke="black" points="1296.61,-392.1 1092.63,-392.1 1092.63,-316.7 1296.61,-316.7 1296.61,-392.1"/>
<text text-anchor="middle" x="1194.62" y="-375.4" font-family="Times,serif" font-size="14.00">water&#45;project&#45;cost&#45;sharing &lt;= 0.5</text>
<text text-anchor="middle" x="1194.62" y="-358.6" font-family="Times,serif" font-size="14.00">gini = 0.142</text>
<text text-anchor="middle" x="1194.62" y="-341.8" font-family="Times,serif" font-size="14.00">samples = 13</text>
<text text-anchor="middle" x="1194.62" y="-325" font-family="Times,serif" font-size="14.00">value = [12, 1]</text>
</g>
<!-- 27&#45;&gt;31 -->
<g id="edge31" class="edge"><title>27&#45;&gt;31</title>
<path fill="none" stroke="black" d="M1060.45,-427.934C1078.85,-417.985 1098.91,-407.142 1117.77,-396.945"/>
<polygon fill="black" stroke="black" points="1119.5,-399.989 1126.63,-392.155 1116.17,-393.832 1119.5,-399.989"/>
</g>
<!-- 29 -->
<g id="node30" class="node"><title>29</title>
<polygon fill="none" stroke="black" points="886.16,-272.601 795.086,-272.601 795.086,-213.799 886.16,-213.799 886.16,-272.601"/>
<text text-anchor="middle" x="840.623" y="-255.8" font-family="Times,serif" font-size="14.00">gini = 0.0</text>
<text text-anchor="middle" x="840.623" y="-239" font-family="Times,serif" font-size="14.00">samples = 1</text>
<text text-anchor="middle" x="840.623" y="-222.2" font-family="Times,serif" font-size="14.00">value = [0, 1]</text>
</g>
<!-- 28&#45;&gt;29 -->
<g id="edge29" class="edge"><title>28&#45;&gt;29</title>
<path fill="none" stroke="black" d="M906.382,-316.734C895.692,-304.942 883.863,-291.895 873.219,-280.155"/>
<polygon fill="black" stroke="black" points="875.73,-277.713 866.42,-272.655 870.544,-282.414 875.73,-277.713"/>
</g>
<!-- 30 -->
<g id="node31" class="node"><title>30</title>
<polygon fill="none" stroke="black" points="996.16,-272.601 905.086,-272.601 905.086,-213.799 996.16,-213.799 996.16,-272.601"/>
<text text-anchor="middle" x="950.623" y="-255.8" font-family="Times,serif" font-size="14.00">gini = 0.0</text>
<text text-anchor="middle" x="950.623" y="-239" font-family="Times,serif" font-size="14.00">samples = 1</text>
<text text-anchor="middle" x="950.623" y="-222.2" font-family="Times,serif" font-size="14.00">value = [1, 0]</text>
</g>
<!-- 28&#45;&gt;30 -->
<g id="edge30" class="edge"><title>28&#45;&gt;30</title>
<path fill="none" stroke="black" d="M943.316,-316.734C944.414,-305.841 945.619,-293.876 946.729,-282.86"/>
<polygon fill="black" stroke="black" points="950.237,-282.955 947.757,-272.655 943.272,-282.254 950.237,-282.955"/>
</g>
<!-- 32 -->
<g id="node33" class="node"><title>32</title>
<polygon fill="none" stroke="black" points="1328.21,-280.9 1037.04,-280.9 1037.04,-205.5 1328.21,-205.5 1328.21,-280.9"/>
<text text-anchor="middle" x="1182.62" y="-264.2" font-family="Times,serif" font-size="14.00">export&#45;administration&#45;act&#45;south&#45;africa &lt;= 0.4061</text>
<text text-anchor="middle" x="1182.62" y="-247.4" font-family="Times,serif" font-size="14.00">gini = 0.375</text>
<text text-anchor="middle" x="1182.62" y="-230.6" font-family="Times,serif" font-size="14.00">samples = 4</text>
<text text-anchor="middle" x="1182.62" y="-213.8" font-family="Times,serif" font-size="14.00">value = [3, 1]</text>
</g>
<!-- 31&#45;&gt;32 -->
<g id="edge32" class="edge"><title>31&#45;&gt;32</title>
<path fill="none" stroke="black" d="M1190.59,-316.734C1189.68,-308.451 1188.71,-299.548 1187.76,-290.914"/>
<polygon fill="black" stroke="black" points="1191.23,-290.513 1186.66,-280.955 1184.28,-291.277 1191.23,-290.513"/>
</g>
<!-- 37 -->
<g id="node38" class="node"><title>37</title>
<polygon fill="none" stroke="black" points="1437.16,-272.601 1346.09,-272.601 1346.09,-213.799 1437.16,-213.799 1437.16,-272.601"/>
<text text-anchor="middle" x="1391.62" y="-255.8" font-family="Times,serif" font-size="14.00">gini = 0.0</text>
<text text-anchor="middle" x="1391.62" y="-239" font-family="Times,serif" font-size="14.00">samples = 9</text>
<text text-anchor="middle" x="1391.62" y="-222.2" font-family="Times,serif" font-size="14.00">value = [9, 0]</text>
</g>
<!-- 31&#45;&gt;37 -->
<g id="edge37" class="edge"><title>31&#45;&gt;37</title>
<path fill="none" stroke="black" d="M1271.28,-316.716C1293.02,-305.711 1316.52,-293.244 1337.62,-280.8 1339.13,-279.91 1340.66,-278.994 1342.19,-278.059"/>
<polygon fill="black" stroke="black" points="1344.38,-280.813 1350.99,-272.53 1340.66,-274.885 1344.38,-280.813"/>
</g>
<!-- 33 -->
<g id="node34" class="node"><title>33</title>
<polygon fill="none" stroke="black" points="1192.42,-169.7 1022.82,-169.7 1022.82,-94.2997 1192.42,-94.2997 1192.42,-169.7"/>
<text text-anchor="middle" x="1107.62" y="-153" font-family="Times,serif" font-size="14.00">handicapped&#45;infants &lt;= 0.5</text>
<text text-anchor="middle" x="1107.62" y="-136.2" font-family="Times,serif" font-size="14.00">gini = 0.5</text>
<text text-anchor="middle" x="1107.62" y="-119.4" font-family="Times,serif" font-size="14.00">samples = 2</text>
<text text-anchor="middle" x="1107.62" y="-102.6" font-family="Times,serif" font-size="14.00">value = [1, 1]</text>
</g>
<!-- 32&#45;&gt;33 -->
<g id="edge33" class="edge"><title>32&#45;&gt;33</title>
<path fill="none" stroke="black" d="M1157.44,-205.534C1151.38,-196.711 1144.84,-187.184 1138.55,-178.028"/>
<polygon fill="black" stroke="black" points="1141.41,-176.016 1132.87,-169.755 1135.64,-179.98 1141.41,-176.016"/>
</g>
<!-- 36 -->
<g id="node37" class="node"><title>36</title>
<polygon fill="none" stroke="black" points="1302.16,-161.401 1211.09,-161.401 1211.09,-102.599 1302.16,-102.599 1302.16,-161.401"/>
<text text-anchor="middle" x="1256.62" y="-144.6" font-family="Times,serif" font-size="14.00">gini = 0.0</text>
<text text-anchor="middle" x="1256.62" y="-127.8" font-family="Times,serif" font-size="14.00">samples = 2</text>
<text text-anchor="middle" x="1256.62" y="-111" font-family="Times,serif" font-size="14.00">value = [2, 0]</text>
</g>
<!-- 32&#45;&gt;36 -->
<g id="edge36" class="edge"><title>32&#45;&gt;36</title>
<path fill="none" stroke="black" d="M1207.47,-205.534C1215.23,-194.079 1223.8,-181.44 1231.57,-169.964"/>
<polygon fill="black" stroke="black" points="1234.63,-171.697 1237.34,-161.455 1228.83,-167.77 1234.63,-171.697"/>
</g>
<!-- 34 -->
<g id="node35" class="node"><title>34</title>
<polygon fill="none" stroke="black" points="1098.16,-58.6014 1007.09,-58.6014 1007.09,0.201379 1098.16,0.201379 1098.16,-58.6014"/>
<text text-anchor="middle" x="1052.62" y="-41.8" font-family="Times,serif" font-size="14.00">gini = 0.0</text>
<text text-anchor="middle" x="1052.62" y="-25" font-family="Times,serif" font-size="14.00">samples = 1</text>
<text text-anchor="middle" x="1052.62" y="-8.2" font-family="Times,serif" font-size="14.00">value = [0, 1]</text>
</g>
<!-- 33&#45;&gt;34 -->
<g id="edge34" class="edge"><title>33&#45;&gt;34</title>
<path fill="none" stroke="black" d="M1087.61,-94.3237C1082.82,-85.5502 1077.71,-76.176 1072.91,-67.38"/>
<polygon fill="black" stroke="black" points="1075.91,-65.5741 1068.05,-58.4722 1069.77,-68.9269 1075.91,-65.5741"/>
</g>
<!-- 35 -->
<g id="node36" class="node"><title>35</title>
<polygon fill="none" stroke="black" points="1208.16,-58.6014 1117.09,-58.6014 1117.09,0.201379 1208.16,0.201379 1208.16,-58.6014"/>
<text text-anchor="middle" x="1162.62" y="-41.8" font-family="Times,serif" font-size="14.00">gini = 0.0</text>
<text text-anchor="middle" x="1162.62" y="-25" font-family="Times,serif" font-size="14.00">samples = 1</text>
<text text-anchor="middle" x="1162.62" y="-8.2" font-family="Times,serif" font-size="14.00">value = [1, 0]</text>
</g>
<!-- 33&#45;&gt;35 -->
<g id="edge35" class="edge"><title>33&#45;&gt;35</title>
<path fill="none" stroke="black" d="M1127.63,-94.3237C1132.42,-85.5502 1137.54,-76.176 1142.34,-67.38"/>
<polygon fill="black" stroke="black" points="1145.48,-68.9269 1147.2,-58.4722 1139.33,-65.5741 1145.48,-68.9269"/>
</g>
<!-- 39 -->
<g id="node40" class="node"><title>39</title>
<polygon fill="none" stroke="black" points="1193.16,-495.001 1102.09,-495.001 1102.09,-436.199 1193.16,-436.199 1193.16,-495.001"/>
<text text-anchor="middle" x="1147.62" y="-478.2" font-family="Times,serif" font-size="14.00">gini = 0.0</text>
<text text-anchor="middle" x="1147.62" y="-461.4" font-family="Times,serif" font-size="14.00">samples = 4</text>
<text text-anchor="middle" x="1147.62" y="-444.6" font-family="Times,serif" font-size="14.00">value = [0, 4]</text>
</g>
<!-- 38&#45;&gt;39 -->
<g id="edge39" class="edge"><title>38&#45;&gt;39</title>
<path fill="none" stroke="black" d="M1148.95,-539.134C1148.75,-528.241 1148.53,-516.276 1148.33,-505.26"/>
<polygon fill="black" stroke="black" points="1151.83,-504.989 1148.14,-495.055 1144.83,-505.117 1151.83,-504.989"/>
</g>
<!-- 40 -->
<g id="node41" class="node"><title>40</title>
<polygon fill="none" stroke="black" points="1303.16,-495.001 1212.09,-495.001 1212.09,-436.199 1303.16,-436.199 1303.16,-495.001"/>
<text text-anchor="middle" x="1257.62" y="-478.2" font-family="Times,serif" font-size="14.00">gini = 0.0</text>
<text text-anchor="middle" x="1257.62" y="-461.4" font-family="Times,serif" font-size="14.00">samples = 2</text>
<text text-anchor="middle" x="1257.62" y="-444.6" font-family="Times,serif" font-size="14.00">value = [2, 0]</text>
</g>
<!-- 38&#45;&gt;40 -->
<g id="edge40" class="edge"><title>38&#45;&gt;40</title>
<path fill="none" stroke="black" d="M1185.89,-539.134C1197.66,-527.23 1210.7,-514.046 1222.39,-502.22"/>
<polygon fill="black" stroke="black" points="1224.94,-504.626 1229.48,-495.055 1219.96,-499.704 1224.94,-504.626"/>
</g>
</g>
</svg>
